<svg width="49" height="35" viewBox="0 0 49 35" fill="none" xmlns="http://www.w3.org/2000/svg">
<path d="M48.469 0.00427679L36.6805 1.39986C36.2899 1.44638 36.1242 1.91739 36.4024 2.19069L39.9117 5.63895L26.5372 18.7807L20.5128 12.8669C20.14 12.5006 19.5423 12.5064 19.1754 12.8669L0.137532 31.5794C0.0494253 31.6668 0 31.7849 0 31.9079C0 32.031 0.0494253 32.149 0.137532 32.2365L2.80058 34.8648C2.98404 35.0451 3.28585 35.0451 3.46931 34.8648L19.8441 18.7807L25.8626 24.6945C26.2354 25.055 26.8331 25.055 27.2 24.6945L43.2612 8.92439L46.7705 12.3726C46.8334 12.4341 46.9126 12.477 46.9991 12.4965C47.0856 12.516 47.1759 12.5112 47.2597 12.4827C47.3436 12.4542 47.4176 12.4032 47.4734 12.3354C47.5292 12.2677 47.5645 12.1859 47.5754 12.0993L48.9956 0.51599C49.0371 0.219429 48.7767 -0.0364278 48.469 0.00427679Z" fill="#0071BC"/>
</svg>
