<svg width="27" height="27" viewBox="0 0 27 27" fill="none" xmlns="http://www.w3.org/2000/svg">
<g clip-path="url(#clip0_2_821)">
<path d="M4.51077 21.4777C6.78585 23.7496 9.79928 25 13 25C16.2007 25 19.2154 23.7496 21.4892 21.4777C26.1703 16.8034 26.1703 9.19781 21.4892 4.52225C19.2154 2.25161 16.1995 1 13 1C9.80048 1 6.78465 2.25161 4.51077 4.52345C-0.170256 9.19661 -0.170256 16.8034 4.51077 21.4777ZM13.371 3.4169C15.3761 3.48897 17.3068 4.19319 18.8864 5.42859L13 11.3054L11.2472 9.55507C12.641 7.78196 13.3986 5.58924 13.371 3.4169ZM9.53035 7.8407L7.11481 5.42859C8.24882 4.54097 9.56982 3.92199 10.9782 3.61831C10.9602 5.1001 10.444 6.58789 9.53035 7.8407ZM7.82074 9.5239C6.59776 10.3582 5.14907 10.8003 3.66797 10.7911C3.97992 9.45733 4.57705 8.2067 5.4184 7.12498L7.82074 9.5239ZM3.40864 13.1756C3.50109 13.178 3.59353 13.1924 3.68598 13.1924C5.79861 13.1991 7.85525 12.5144 9.54116 11.2431L11.3024 13.0006L5.4184 18.8762C4.14863 17.2431 3.44344 15.2429 3.40864 13.1756ZM18.1685 16.4665C19.4195 15.5578 20.9058 15.0423 22.3801 15.0207C22.0797 16.4251 21.4653 17.7435 20.5828 18.8774L18.1685 16.4665ZM18.8852 20.5726C17.8026 21.4177 16.5498 22.0188 15.2127 22.3349C15.1991 20.8505 15.642 19.3976 16.4817 18.1725L18.8852 20.5726ZM12.8295 22.5939C10.7544 22.5609 8.74703 21.8511 7.1136 20.5726L13 14.6958L14.7564 16.4497C13.4322 18.1809 12.7647 20.3652 12.8295 22.5939ZM22.583 12.6314C20.4135 12.6098 18.2213 13.3627 16.4504 14.7509L14.6976 13.0006L20.5816 7.12498C21.8097 8.70585 22.5098 10.6319 22.583 12.6314Z" fill="white"/>
</g>
<defs>
<clipPath id="clip0_2_821">
<rect width="27" height="27" fill="white"/>
</clipPath>
</defs>
</svg>
