<svg width="44" height="44" viewBox="0 0 44 44" fill="none" xmlns="http://www.w3.org/2000/svg">
<path d="M7.66907 37.2006C7.66907 37.2006 14.2759 44.1512 25.6094 42.3878C36.9428 40.6278 41.4872 30.69 42.4222 25.025C43.6116 17.8097 40.315 12.8494 40.1397 12.5778C40.0091 12.3784 7.66907 37.2006 7.66907 37.2006Z" fill="#DC5819"/>
<path d="M7.15342 7.39406C0.364359 14.5406 -0.787202 24.9803 4.31748 33.0481C6.6928 36.8019 8.14686 37.565 8.14686 37.565C8.14686 37.565 19.2534 44.6875 31.735 33.8903C42.4256 24.6434 40.1603 12.6019 40.1603 12.6019C40.1603 12.6019 38.8265 9.68687 36.0215 6.91968C29.7962 0.773433 15.8812 -1.79782 7.15342 7.39406Z" fill="#EF6C32"/>
<path d="M34.3647 5.51375C34.265 5.52063 24.3341 6.23562 13.8291 20.3569C7.1947 29.2738 7.52126 35.5678 7.77907 37.2934C7.77907 37.2934 7.27376 36.8775 6.91626 36.4925C6.55876 36.1109 6.28032 35.7706 6.28032 35.7706C6.25282 32.7491 7.15688 27.0222 12.7291 19.5353C21.2094 8.12625 29.3184 5.15281 32.7181 4.38281C32.7181 4.38281 33.1341 4.62687 33.5363 4.87781C33.8319 5.06344 34.3647 5.51375 34.3647 5.51375Z" fill="#2D3130"/>
<path d="M5.35222 9.54935C6.45565 11.3609 9.11972 15.2762 13.7328 19.3634C19.5388 24.5128 25.575 28.6997 31.6663 31.8037C34.5435 33.2715 36.7538 34.1309 38.3178 34.6362C38.3178 34.6362 38.091 34.9834 37.8778 35.2687C37.6647 35.554 37.431 35.7947 37.431 35.7947C35.8394 35.255 33.715 34.3956 31.0372 33.0275C24.8428 29.8684 18.7103 25.6162 12.8185 20.3912C8.45284 16.5206 5.80597 12.8562 4.50659 10.804C4.50659 10.804 4.68878 10.4431 4.9294 10.1234C5.17003 9.80373 5.35222 9.54935 5.35222 9.54935Z" fill="#2D3130"/>
<path d="M18.2806 1.63968C17.789 2.19999 17.0878 3.11093 16.2697 4.48936C15.5203 5.74749 15.1353 6.99874 14.6884 8.44936C13.9562 10.8281 13.1278 13.5231 10.4156 16.9675C6.64811 21.7525 2.94592 23.3509 1.22029 23.8631C1.22029 23.8631 1.17217 23.4162 1.15498 23.1034C1.13779 22.7906 1.14467 22.4365 1.14467 22.4365C2.78436 21.8762 6.02936 20.3087 9.33279 16.1184C11.8869 12.8734 12.674 10.309 13.3719 8.04717C13.8256 6.57592 14.2519 5.18718 15.0872 3.78811C15.4825 3.12468 15.8537 2.55749 16.194 2.08311C16.194 2.08311 16.5756 1.95593 17.0981 1.83905C17.5037 1.7428 18.2806 1.63968 18.2806 1.63968Z" fill="#2D3130"/>
<path d="M23.6225 42.6284C22.471 41.5869 20.0922 39.2081 18.3563 35.8978C16.4347 32.2369 15.5341 26.73 18.0985 23.289C21.0272 19.3634 26.4963 18.8306 31.4669 18.8306H31.4875C37.816 18.834 42.5769 20.1575 42.6319 20.1747C42.6319 20.1747 42.5941 19.7106 42.5425 19.3153C42.4978 18.975 42.4497 18.6587 42.4497 18.6587C42.2091 18.5969 38.0016 17.459 31.4875 17.4556H31.4669C26.156 17.4556 20.2847 18.0537 16.995 22.4675C14.8775 25.3069 14.1006 30.7587 17.1394 36.5372C18.5694 39.2597 20.3706 41.36 21.6872 42.6834C21.6872 42.6834 22.0722 42.6972 22.5638 42.6903C23.0485 42.6834 23.6225 42.6284 23.6225 42.6284Z" fill="#2D3130"/>
</svg>
