<svg width="398" height="232" viewBox="0 0 398 232" fill="none" xmlns="http://www.w3.org/2000/svg">
<path d="M398 0H0V231.816H398V0Z" fill="white"/>
<path d="M179.265 81.5498C179.626 82.563 180.999 85.6475 184.962 87.8315C193.855 79.8386 203.244 77.7672 207.792 77.2494C204.978 76.619 202.028 76.2587 199.011 76.2587C191.829 76.2587 185.074 78.195 179.265 81.5498Z" fill="#D6461F"/>
<path d="M355.064 111.045C353.015 111.045 351.349 112.733 351.349 114.782C351.349 116.854 353.015 118.52 355.064 118.52C357.113 118.52 358.779 116.831 358.779 114.782C358.779 112.733 357.113 111.045 355.064 111.045Z" fill="#B13E15"/>
<path d="M373.639 34.4031V34.8534V108.298L377.511 111.337H378.885V98.5262H393.249V131.061H378.885V118.227H377.511L373.639 121.289V194.711V195.161V221.571H255.457V230.713H396.919V1.10322H255.457V10.2444H373.639V34.4031Z" fill="#B13E15"/>
<path d="M366.726 130.903V126.738V121.919V107.645V102.827V98.6613H361.458V130.903H366.726Z" fill="#6C1D00"/>
<path d="M367.605 121.221L375.62 114.782L367.605 108.365V121.221Z" fill="#B13E15"/>
<path d="M379.763 118.227V130.16H392.349V99.4043H379.763V111.337H388.769V118.227H379.763Z" fill="#6C1D00"/>
<path d="M377.196 112.215L367.605 104.65V107.217L377.038 114.782L367.605 122.347V124.914L377.196 117.349H378.885H387.891V112.215H378.885H377.196Z" fill="#6C1D00"/>
<path d="M149.343 115.908C149.343 143.151 171.385 165.329 198.561 165.554V156.435C176.429 156.187 158.484 138.108 158.484 115.908C158.484 93.708 176.429 75.6283 198.561 75.3806V66.2395C171.385 66.4872 149.343 88.6646 149.343 115.908Z" fill="#F7921E"/>
<path d="M178.387 96.6124C177.802 97.4454 177.239 98.2785 176.676 99.1791C175.505 101.07 174.515 102.962 173.637 104.83C179.558 107.037 182.035 114.219 184.444 121.176C185.435 124.058 186.38 126.805 187.529 129.034C189.758 133.38 197.84 148.037 208.017 154.499C217.969 152.18 226.48 146.101 231.996 137.838C215.087 115.503 192.032 102.714 178.387 96.6124Z" fill="#D6461F"/>
<path d="M178.905 95.892C192.617 102.039 215.582 114.827 232.491 137.072C236.364 130.948 238.638 123.698 238.638 115.908C238.638 113.161 238.345 110.482 237.827 107.893C229.609 91.6141 212.183 91.3439 199.439 91.1638C197.413 91.1413 195.499 91.0963 193.743 91.0062C190.095 90.8261 187.281 89.993 185.097 88.8898C182.981 90.8486 180.887 93.1676 178.905 95.892Z" fill="#D6461F"/>
<path d="M199.462 90.2632C211.642 90.4433 228.056 90.691 237.017 104.673C233.234 91.9068 223.193 81.82 210.472 77.9699C209.346 77.9699 197.233 78.1725 185.795 88.2818C187.821 89.25 190.433 89.9705 193.788 90.1281C195.521 90.2181 197.435 90.2407 199.462 90.2632Z" fill="#D6461F"/>
<path d="M254.556 221.571H141.08V230.713H254.556V221.571Z" fill="#B13E15"/>
<path d="M159.362 115.908C159.362 125.905 163.077 135.046 169.201 142.025C167.963 136.892 165.284 121.559 172.421 105.393C165.059 103.322 160.555 108.32 159.948 109.041C159.587 111.247 159.362 113.566 159.362 115.908Z" fill="#D6461F"/>
<path d="M248.68 115.908C248.68 88.6646 226.637 66.4872 199.462 66.262V75.3807C221.594 75.6283 239.538 93.708 239.538 115.908C239.538 138.108 221.594 156.187 199.462 156.435V165.576C226.637 165.329 248.68 143.151 248.68 115.908Z" fill="#F7921E"/>
<path d="M160.285 107.442C162.199 105.709 166.544 102.737 172.804 104.56C173.704 102.624 174.74 100.665 175.933 98.7288C176.474 97.8733 177.014 97.0627 177.554 96.2522C172.106 93.8656 168.278 92.5822 167.197 92.2445C163.91 96.68 161.501 101.836 160.285 107.442Z" fill="#D6461F"/>
<path d="M178.5 82.0001C174.38 84.4993 170.755 87.7414 167.805 91.524C169.224 91.9968 172.939 93.2802 178.095 95.5542C180.076 92.8073 182.17 90.4433 184.309 88.4619C180.504 86.2104 178.973 83.2159 178.5 82.0001Z" fill="#D6461F"/>
<path d="M199.011 155.557C201.691 155.557 204.302 155.287 206.824 154.769C196.805 147.969 188.969 133.74 186.763 129.439C185.592 127.143 184.624 124.374 183.633 121.469C181.292 114.692 178.883 107.69 173.299 105.641C165.013 124.284 170.012 141.778 170.507 143.399C177.712 150.896 187.821 155.557 199.011 155.557Z" fill="#D6461F"/>
<path d="M28.6167 121.221V108.343L20.5563 114.782L28.6167 121.221Z" fill="#B13E15"/>
<path d="M104.313 87.3362V142.228C118.902 141.71 130.61 129.597 130.61 114.782C130.61 99.9672 118.902 87.854 104.313 87.3362Z" fill="#F7921E"/>
<path d="M25.2395 106.181L28.6168 103.525V97.7607H35.6865V111.563C36.7898 109.649 38.8837 108.343 41.2478 108.343C44.7826 108.343 47.6871 111.225 47.6871 114.782C47.6871 118.317 44.8052 121.221 41.2478 121.221C38.8612 121.221 36.7898 119.916 35.6865 118.002V131.804H28.6168V126.04L25.2395 123.383V142.251H96.3423C84.1841 139.121 75.1555 127.999 75.1555 114.782C75.1555 101.566 84.1616 90.4433 96.3423 87.3137H25.2395V106.181Z" fill="#B13E15"/>
<path d="M50.6816 34.8534H25.2395V86.4356H104.313V86.4581C116.403 86.8859 126.58 94.9914 130.137 106.091C125.792 66.1044 91.8167 34.8534 50.6816 34.8534Z" fill="#FAA431"/>
<path d="M41.2702 118.52C43.3416 118.52 45.0077 116.831 45.0077 114.782C45.0077 112.711 43.3191 111.045 41.2702 111.045C39.2213 111.045 37.5327 112.733 37.5327 114.782C37.5327 116.854 39.1988 118.52 41.2702 118.52Z" fill="#B13E15"/>
<path d="M41.2702 120.343C44.3323 120.343 46.809 117.844 46.809 114.805C46.809 111.765 44.3098 109.266 41.2702 109.266C38.2307 109.266 35.7315 111.765 35.7315 114.805C35.7315 117.844 38.2082 120.343 41.2702 120.343ZM41.2702 110.167C43.8144 110.167 45.8858 112.238 45.8858 114.782C45.8858 117.326 43.8144 119.398 41.2702 119.398C38.726 119.398 36.6546 117.326 36.6546 114.782C36.6321 112.238 38.7035 110.167 41.2702 110.167Z" fill="#6C1D00"/>
<path d="M140.202 221.571H24.3614V195.611V194.711V142.701V142.251V122.685L18.665 118.227H17.2691V131.061H2.8369V98.5262H17.2691V111.337H18.665L24.3614 106.879V87.3137V86.8859V34.8534V33.9753V10.2444H140.202V1.10322H1.08072V230.713H140.202V221.571Z" fill="#B13E15"/>
<path d="M29.5174 98.6613V102.849V107.645V121.919V126.738V130.903H34.8084V98.6613H29.5174Z" fill="#6C1D00"/>
<path d="M140.202 11.1225H25.2395V33.9753H50.6816C95.2391 33.9753 131.511 70.2247 131.511 114.805C131.511 159.385 95.2616 195.634 50.6816 195.634H25.2395V220.716H140.202V214.682H141.08V220.716H198.561V166.454C170.89 166.207 148.442 143.624 148.442 115.908C148.442 88.1917 170.89 65.6091 198.561 65.3614V11.1225H141.08V17.1565H140.202V11.1225Z" fill="#FDBA4D"/>
<path d="M254.556 11.1225H199.439V65.3614C227.11 65.6091 249.535 88.1692 249.535 115.908C249.535 143.624 227.088 166.207 199.439 166.454V220.693H254.556V214.659H255.434V220.693H372.738V195.611H347.296C302.738 195.611 266.467 159.362 266.467 114.782C266.467 70.2022 302.716 33.9528 347.296 33.9528H372.738V11.1225H255.434V17.1565H254.556V11.1225Z" fill="#FDBA4D"/>
<path d="M254.556 1.10322H141.08V10.2444H254.556V1.10322Z" fill="#B13E15"/>
<path d="M103.435 142.251V87.3137C103.412 87.3137 103.367 87.3137 103.344 87.3137C88.3043 87.3137 76.0561 99.6295 76.0561 114.782C76.0561 129.912 88.2818 142.251 103.322 142.251H103.367C103.389 142.251 103.412 142.251 103.435 142.251Z" fill="#B13E15"/>
<path d="M355.064 109.243C352.024 109.243 349.547 111.743 349.547 114.782C349.547 117.822 352.024 120.321 355.064 120.321C358.103 120.321 360.58 117.822 360.58 114.782C360.58 111.743 358.103 109.243 355.064 109.243ZM355.064 119.42C352.519 119.42 350.47 117.349 350.47 114.805C350.47 112.26 352.542 110.189 355.064 110.189C357.608 110.189 359.657 112.26 359.657 114.805C359.657 117.326 357.585 119.42 355.064 119.42Z" fill="#6C1D00"/>
<path d="M25.2395 194.711H50.6816C91.8167 194.711 125.792 163.46 130.137 123.473C126.58 134.573 116.403 142.701 104.313 143.106V143.129H103.344C103.344 143.129 103.344 143.129 103.322 143.129C103.322 143.129 103.322 143.129 103.299 143.129H25.2395V194.711Z" fill="#FAA431"/>
<path d="M18.9802 117.349L28.6167 124.914V122.347L19.1604 114.782L28.6167 107.217V104.65L18.9802 112.215H17.2691H8.21802V117.349H17.2691H18.9802Z" fill="#6C1D00"/>
<path d="M16.391 111.337V99.4043H3.715V130.16H16.391V118.227H7.33993V111.337H16.391Z" fill="#F7921E"/>
<path d="M294.228 87.3137C279.39 87.5614 267.39 99.7871 267.39 114.782C267.39 129.777 279.39 142.003 294.228 142.251V87.3137Z" fill="#FAA431"/>
<path d="M295.128 87.3137V142.251C309.966 142.003 321.966 129.777 321.966 114.782C321.966 99.7871 309.988 87.5614 295.128 87.3137Z" fill="#B13E15"/>
<path d="M372.761 34.8534H347.318C306.183 34.8534 272.208 66.1044 267.863 106.091C271.51 94.6987 282.16 86.4131 294.678 86.4131C295.421 86.4131 296.142 86.4356 296.862 86.5032H372.761V34.8534Z" fill="#FAA431"/>
<path d="M294.678 143.129C282.16 143.129 271.51 134.866 267.863 123.45C272.208 163.46 306.183 194.688 347.318 194.688H372.761V143.039H296.997C296.232 143.106 295.466 143.129 294.678 143.129Z" fill="#FAA431"/>
<path d="M372.761 107.6V87.2236H301.23C313.613 90.1956 322.867 101.431 322.867 114.805C322.867 128.156 313.658 139.369 301.275 142.363H372.761V121.987L367.627 126.04V131.804H360.602V118.024C359.499 119.938 357.428 121.244 355.086 121.244C351.551 121.244 348.692 118.362 348.692 114.805C348.692 111.27 351.551 108.365 355.086 108.365C357.45 108.365 359.499 109.649 360.602 111.585V97.8057H367.627V103.525L372.761 107.6Z" fill="#B13E15"/>
<path d="M322.844 16.0758H283.893V22.38H322.844V16.0758Z" fill="#FAA431"/>
<path d="M282.768 23.7309H243.816V30.0352H282.768V23.7309Z" fill="#FAA431"/>
<path d="M364.272 24.4064H325.321V30.7106H364.272V24.4064Z" fill="#FAA431"/>
<path d="M242.691 37.24H203.739V43.5442H242.691V37.24Z" fill="#FAA431"/>
<path d="M273.987 69.4366H235.035V75.7409H273.987V69.4366Z" fill="#FAA431"/>
<path d="M228.281 15.1752H201.938V21.4794H228.281V15.1752Z" fill="#FAA431"/>
<path d="M296.052 42.8688H269.709V49.173H296.052V42.8688Z" fill="#FAA431"/>
<path d="M249.445 53.8337H223.102V60.1379H249.445V53.8337Z" fill="#FAA431"/>
<path d="M322.844 209.706H283.893V216.01H322.844V209.706Z" fill="#FAA431"/>
<path d="M282.768 202.051H243.816V208.355H282.768V202.051Z" fill="#FAA431"/>
<path d="M364.272 201.375H325.321V207.68H364.272V201.375Z" fill="#FAA431"/>
<path d="M242.691 188.542H203.739V194.846H242.691V188.542Z" fill="#FAA431"/>
<path d="M273.987 156.345H235.035V162.649H273.987V156.345Z" fill="#FAA431"/>
<path d="M228.281 210.607H201.938V216.911H228.281V210.607Z" fill="#FAA431"/>
<path d="M296.052 182.913H269.709V189.217H296.052V182.913Z" fill="#FAA431"/>
<path d="M249.445 171.948H223.102V178.252H249.445V171.948Z" fill="#FAA431"/>
<path d="M114.377 209.706H75.4257V216.01H114.377V209.706Z" fill="#FAA431"/>
<path d="M154.454 202.051H115.503V208.355H154.454V202.051Z" fill="#FAA431"/>
<path d="M72.949 201.375H33.9978V207.68H72.949V201.375Z" fill="#FAA431"/>
<path d="M194.531 188.542H155.58V194.846H194.531V188.542Z" fill="#FAA431"/>
<path d="M163.235 156.345H124.284V162.649H163.235V156.345Z" fill="#FAA431"/>
<path d="M196.332 210.607H169.989V216.911H196.332V210.607Z" fill="#FAA431"/>
<path d="M128.561 182.913H102.219V189.217H128.561V182.913Z" fill="#FAA431"/>
<path d="M175.168 171.948H148.825V178.252H175.168V171.948Z" fill="#FAA431"/>
<path d="M114.377 16.0758H75.4257V22.38H114.377V16.0758Z" fill="#FAA431"/>
<path d="M154.454 23.7309H115.503V30.0352H154.454V23.7309Z" fill="#FAA431"/>
<path d="M72.949 24.4064H33.9978V30.7106H72.949V24.4064Z" fill="#FAA431"/>
<path d="M194.531 37.24H155.58V43.5442H194.531V37.24Z" fill="#FAA431"/>
<path d="M163.235 69.4366H124.284V75.7409H163.235V69.4366Z" fill="#FAA431"/>
<path d="M196.332 15.1752H169.989V21.4794H196.332V15.1752Z" fill="#FAA431"/>
<path d="M128.561 42.8688H102.219V49.173H128.561V42.8688Z" fill="#FAA431"/>
<path d="M175.168 53.8337H148.825V60.1379H175.168V53.8337Z" fill="#FAA431"/>
<path d="M331.625 59.3048H292.674V65.6091H331.625V59.3048Z" fill="#FDBA4D"/>
<path d="M361.345 164.676H322.394V170.98H361.345V164.676Z" fill="#FDBA4D"/>
<path d="M73.1516 163.325H34.2005V169.629H73.1516V163.325Z" fill="#FDBA4D"/>
<path d="M73.1516 62.9073H34.2005V69.2115H73.1516V62.9073Z" fill="#FDBA4D"/>
<path d="M80.8068 46.246H41.8556V52.5503H80.8068V46.246Z" fill="#FDBA4D"/>
<path d="M350.313 42.4185H323.97V48.7227H350.313V42.4185Z" fill="#FDBA4D"/>
<path d="M364.047 72.5888H337.704V78.893H364.047V72.5888Z" fill="#FDBA4D"/>
<path d="M316.765 153.193H290.423V159.497H316.765V153.193Z" fill="#FDBA4D"/>
<path d="M342.095 178.185H315.752V184.489H342.095V178.185Z" fill="#FDBA4D"/>
<path d="M103.885 150.266H77.5421V156.57H103.885V150.266Z" fill="#FDBA4D"/>
<path d="M83.6212 178.635H57.2785V184.939H83.6212V178.635Z" fill="#FDBA4D"/>
<path d="M100.282 75.0654H73.9397V81.3697H100.282V75.0654Z" fill="#FDBA4D"/>
</svg>
