<svg width="42" height="42" viewBox="0 0 42 42" fill="none" xmlns="http://www.w3.org/2000/svg">
<g clip-path="url(#clip0_18_934)">
<path d="M4.0215 40.4644C3.88041 40.2721 4.28794 38.9078 4.37063 38.81C6.51722 36.311 6.59597 28.2706 6.552 27.1248C6.44438 24.4801 7.84613 21.8052 9.02869 22.3834C10.1706 22.9412 11.0657 28.4406 11.2855 29.5411C11.8283 32.2324 11.6156 35.4539 10.7441 38.0054C9.82407 40.7072 6.26785 43.449 4.0215 40.4644Z" fill="#C2986B"/>
<path d="M38.0461 40.4644C38.1865 40.2721 37.7797 38.9078 37.6963 38.81C35.5497 36.311 35.4716 28.2706 35.5156 27.1248C35.6226 24.4801 34.2208 21.8052 33.0383 22.3834C31.897 22.9412 31.0019 28.4406 30.7821 29.5411C30.2393 32.2324 30.452 35.4539 31.3235 38.0054C32.2429 40.7072 35.7991 43.449 38.0461 40.4644Z" fill="#C2986B"/>
<path d="M1.58876 11.3754C3.00626 12.7935 6.34329 11.7514 9.04835 9.04567C11.7521 6.34192 12.7942 3.0062 11.3767 1.58739C9.96251 0.174484 4.28004 -1.12883 1.57498 1.57492C-1.12877 4.27867 0.174539 9.96245 1.58876 11.3754Z" fill="#FBB041"/>
<path d="M40.3069 11.3754C38.89 12.7936 35.553 11.7515 32.8479 9.04575C30.1442 6.342 29.1021 3.00628 30.5189 1.58747C31.9338 0.17456 37.6156 -1.12875 40.3207 1.575C43.0244 4.27875 41.7211 9.96253 40.3069 11.3754Z" fill="#FBB041"/>
<path d="M39.9059 21.7022C39.9059 32.1884 31.4075 40.6888 20.9206 40.6888C10.4337 40.6888 1.93463 32.1891 1.93463 21.7022C1.93463 11.2179 10.4331 3.91781 20.9199 3.91781C31.4068 3.91781 39.9059 11.2173 39.9059 21.7022Z" fill="#A7A8AC"/>
<path d="M35.1291 21.8531C35.1291 29.7025 28.7674 36.0649 20.9173 36.0649C13.0672 36.0649 6.70556 29.7025 6.70556 21.8531C6.70556 14.0057 13.0679 8.54241 20.9173 8.54241C28.7667 8.54241 35.1291 14.0057 35.1291 21.8531Z" fill="#E7E6E6"/>
<path d="M22.6771 23.0541C22.6771 24.2064 21.7616 25.1383 20.6315 25.1383C19.5015 25.1383 18.586 24.2064 18.586 23.0541V13.2589C18.586 12.1098 19.5015 11.1779 20.6315 11.1779C21.7622 11.1779 22.6771 12.1098 22.6771 13.2589V23.0541Z" fill="#25333A"/>
<path d="M20.7539 25.1409C19.5543 25.1409 18.585 24.5057 18.585 23.7228C18.585 22.9418 19.5543 22.3073 20.7539 22.3073H30.9632C32.1622 22.3073 33.1341 22.9418 33.1341 23.7228C33.1341 24.5057 32.1628 25.1409 30.9632 25.1409H20.7539Z" fill="#25333A"/>
</g>
<defs>
<clipPath id="clip0_18_934">
<rect width="42" height="42" fill="white"/>
</clipPath>
</defs>
</svg>
