<svg width="44" height="44" viewBox="0 0 44 44" fill="none" xmlns="http://www.w3.org/2000/svg">
<g clip-path="url(#clip0_18_906)">
<path d="M21.9999 3.24867C21.0055 3.24867 20.0519 3.64367 19.3488 4.34678C18.6457 5.04988 18.2507 6.0035 18.2507 6.99784C18.2507 7.99218 18.6457 8.9458 19.3488 9.6489C20.0519 10.352 21.0055 10.747 21.9999 10.747C22.9942 10.747 23.9478 10.352 24.6509 9.6489C25.3541 8.9458 25.7491 7.99218 25.7491 6.99784C25.7491 6.0035 25.3541 5.04988 24.6509 4.34678C23.9478 3.64367 22.9942 3.24867 21.9999 3.24867ZM13.5006 9.99717C12.526 10.0276 11.6016 10.4362 10.923 11.1363C10.2445 11.8364 9.86501 12.7732 9.86501 13.7482C9.86501 14.7232 10.2445 15.6599 10.923 16.36C11.6016 17.0602 12.526 17.4687 13.5006 17.4992C14.4954 17.4992 15.4495 17.104 16.1529 16.4005C16.8564 15.6971 17.2516 14.743 17.2516 13.7482C17.2516 12.7533 16.8564 11.7993 16.1529 11.0958C15.4495 10.3924 14.4954 9.99717 13.5006 9.99717ZM30.5011 9.99717C29.5265 10.0276 28.6021 10.4362 27.9235 11.1363C27.245 11.8364 26.8655 12.7732 26.8655 13.7482C26.8655 14.7232 27.245 15.6599 27.9235 16.36C28.6021 17.0602 29.5265 17.4687 30.5011 17.4992C31.4959 17.4992 32.45 17.104 33.1534 16.4005C33.8569 15.6971 34.2521 14.743 34.2521 13.7482C34.2521 12.7533 33.8569 11.7993 33.1534 11.0958C32.45 10.3924 31.4959 9.99717 30.5011 9.99717ZM2.46939 14.0012C1.83655 13.9894 1.22435 14.2264 0.76439 14.6612C0.326713 15.0731 0.057285 15.6326 0.00818482 16.2317C-0.0409154 16.8307 0.133799 17.4266 0.498556 17.9043C1.70856 19.4883 4.15239 22.6783 5.36056 24.2568C6.68293 25.9846 7.39939 28.0999 7.39922 30.2757C7.39922 33.0605 8.70089 35.7133 10.9724 37.3175C12.3786 38.313 13.9314 39.1178 15.5832 39.7008V32.4903C15.5832 31.405 15.9334 30.3453 16.4486 29.4617C16.2615 27.73 15.4863 26.1148 14.2522 24.8857L4.29356 14.861C3.81506 14.3293 3.14772 14.0012 2.46756 13.9993L2.46939 14.0012ZM41.5377 14.0012C40.9054 14.0103 40.3018 14.267 39.8566 14.7162L31.5241 23.1037L29.7494 24.8893C28.5165 26.118 27.7408 27.7314 27.5512 29.4617C28.0371 30.2958 28.3836 31.2822 28.4166 32.3015V39.7063C30.057 39.1268 31.6093 38.3229 33.0292 37.3175C35.2989 35.7133 36.6024 33.0587 36.6024 30.2738C36.6024 28.0973 37.3181 25.9811 38.6392 24.2513L43.5012 17.9043C43.8659 17.4264 44.0408 16.8304 43.992 16.2312C43.9433 15.632 43.6744 15.072 43.2372 14.6593C42.7786 14.2247 42.1676 13.9877 41.5359 13.9993L41.5377 14.0012ZM21.9999 16.7475C21.0302 16.7847 20.1125 17.196 19.4396 17.8952C18.7666 18.5944 18.3907 19.5271 18.3907 20.4976C18.3907 21.468 18.7666 22.4007 19.4396 23.1C20.1125 23.7992 21.0302 24.2105 21.9999 24.2477C22.9945 24.2477 23.9483 23.8526 24.6516 23.1493C25.3549 22.446 25.75 21.4922 25.75 20.4976C25.75 19.503 25.3549 18.5492 24.6516 17.8459C23.9483 17.1426 22.9945 16.7475 21.9999 16.7475ZM22.0036 27.2488C18.9639 27.2488 16.4999 29.5955 16.4999 32.4922V39.9923C20.0967 41.0045 23.9031 41.0045 27.4999 39.9923V32.329C27.4101 29.5093 24.9864 27.2507 22.0036 27.2507V27.2488Z" fill="#FFCE31"/>
</g>
<defs>
<clipPath id="clip0_18_906">
<rect width="44" height="44" fill="white"/>
</clipPath>
</defs>
</svg>
