<svg width="87" height="90" viewBox="0 0 87 90" fill="none" xmlns="http://www.w3.org/2000/svg">
<path d="M73.9619 42.1625C73.9619 61.29 58.4103 76.7958 39.2264 76.7958C20.0425 76.7958 4.49091 61.29 4.49091 42.1625C4.49091 23.035 20.0425 7.52917 39.2264 7.52917C58.4103 7.52917 73.9619 23.035 73.9619 42.1625ZM21.8587 42.1625C21.8587 51.7262 29.6345 59.4792 39.2264 59.4792C48.8183 59.4792 56.5941 51.7262 56.5941 42.1625C56.5941 32.5988 48.8183 24.8458 39.2264 24.8458C29.6345 24.8458 21.8587 32.5988 21.8587 42.1625Z" fill="white" fill-opacity="0.2"/>
<path d="M68.7777 60.401C65.1691 66.247 59.9132 70.8948 53.6745 73.7567C47.4358 76.6185 40.4945 77.5659 33.7285 76.479C26.9624 75.3922 20.6755 72.3198 15.6627 67.6505C10.6499 62.9812 7.13631 56.9247 5.56635 50.2468L22.4365 46.2282C23.2215 49.5671 24.9783 52.5954 27.4847 54.93C29.9911 57.2647 33.1346 58.8008 36.5176 59.3443C39.9006 59.8877 43.3712 59.414 46.4906 57.9831C49.61 56.5522 52.2379 54.2283 54.0422 51.3053L68.7777 60.401Z" fill="white"/>
<path d="M68.6468 60.6127C72.2554 54.7667 74.0544 47.985 73.8165 41.1254C73.5786 34.2657 71.3144 27.6361 67.3102 22.0748C63.306 16.5136 57.7417 12.2706 51.3209 9.88228C44.9001 7.49398 37.9112 7.06769 31.238 8.65732L35.2069 25.5393C38.5435 24.7445 42.038 24.9576 45.2484 26.1517C48.4588 27.3459 51.2409 29.4674 53.243 32.248C55.2451 35.0286 56.3772 38.3435 56.4962 41.7733C56.6151 45.2031 55.7156 48.5939 53.9113 51.5169L68.6468 60.6127Z" fill="white"/>
</svg>
