<svg width="44" height="44" viewBox="0 0 44 44" fill="none" xmlns="http://www.w3.org/2000/svg">
<path d="M15.5833 16.5C12.4228 16.5 9.39179 17.7555 7.15698 19.9903C4.92217 22.2251 3.66667 25.2562 3.66667 28.4167C3.66667 29.9816 3.97491 31.5312 4.57377 32.977C5.17264 34.4228 6.05042 35.7365 7.15698 36.843C9.39179 39.0778 12.4228 40.3333 15.5833 40.3333C17.1483 40.3333 18.6979 40.0251 20.1437 39.4262C21.5894 38.8274 22.9031 37.9496 24.0097 36.843C25.1163 35.7365 25.994 34.4228 26.5929 32.977C27.1918 31.5312 27.5 29.9816 27.5 28.4167V25.5017L40.3333 22V16.5H20.1667V20.1667H16.5V16.5H15.5833ZM20.1667 3.66667V12.8333H16.5V3.66667H20.1667ZM11.6417 13.3467C10.4133 13.64 9.24001 14.08 8.12167 14.6667L3.92334 8.94667L6.89334 6.78334L11.6417 13.3467ZM32.7433 8.94667L29.92 12.8333H25.3917L29.7733 6.78334L32.7433 8.94667Z" fill="#F24E1E"/>
</svg>
